# xmcd
#
# Track frame offsets: 
#        150
#        19380
#        39987
#        57007
#        76455
#        98415
#        119510
#        140937
#        154280
#        176360
#        198540
#        224027
#        243770
#        266850
#        283977
#        303210
#        324075
#
# Disc length: 4721 seconds
#
# Revision: 9
# Processed by: cddbd v1.5.2PL0 Copyright (c) Steve Scherf et al.
# Submitted via: ExactAudioCopyFreeDBPlugin 1.0
#
DISCID=f7126f11
DTITLE=黒夢 - EMI 1994-1998 BEST OR WORST -SOFT DISK-
DYEAR=1999
DGENRE=Punk Rock
TTITLE0=ICE MY LIFE
TTITLE1=優しい悲劇
TTITLE2=Miss MOONLIGHT
TTITLE3=Love Song
TTITLE4=至上のゆりかご
TTITLE5=夢
TTITLE6=KISS
TTITLE7=Walkin' on the edge
TTITLE8=BEAMS
TTITLE9=SEE YOU
TTITLE10=ピストル
TTITLE11=DEAR BLUE
TTITLE12=NITE and DAY
TTITLE13=Spray
TTITLE14=Merry X'mas, I Love You
TTITLE15=MARIA
TTITLE16=REASON OF MYSELF
EXTD=
EXTT0=
EXTT1=
EXTT2=
EXTT3=
EXTT4=
EXTT5=
EXTT6=
EXTT7=
EXTT8=
EXTT9=
EXTT10=
EXTT11=
EXTT12=
EXTT13=
EXTT14=
EXTT15=
EXTT16=
PLAYORDER=
